<svg xmlns="http://www.w3.org/2000/svg" width="1200" height="630" viewBox="0 0 1200 630" role="img" aria-labelledby="title desc">
  <title id="title">따르릉 여주 한글길</title>
  <desc id="desc">여주 자전거 시티투어 공유 이미지</desc>
  <defs>
    <linearGradient id="sky" x1="0" x2="1" y1="0" y2="1">
      <stop offset="0" stop-color="#f7faf8" />
      <stop offset="0.54" stop-color="#edf5f1" />
      <stop offset="1" stop-color="#d9ece8" />
    </linearGradient>
    <linearGradient id="river" x1="0" x2="1" y1="0" y2="0">
      <stop offset="0" stop-color="#167c80" />
      <stop offset="1" stop-color="#4fc3c7" />
    </linearGradient>
  </defs>
  <rect width="1200" height="630" fill="url(#sky)" />
  <path d="M-40 422 C140 356 256 476 430 405 C590 339 734 358 883 315 C1036 272 1136 284 1240 228 L1240 630 L-40 630 Z" fill="url(#river)" opacity="0.92" />
  <path d="M132 424 C248 334 377 454 501 372 C624 291 728 368 832 302 C936 236 1017 276 1094 202" fill="none" stroke="#f26b3a" stroke-width="18" stroke-linecap="round" stroke-dasharray="1 34" />
  <g transform="translate(735 292)">
    <circle cx="0" cy="0" r="78" fill="#3046a6" />
    <text x="0" y="24" fill="#ffffff" font-family="Arial, sans-serif" font-size="76" font-weight="800" text-anchor="middle">ㅎ</text>
  </g>
  <g transform="translate(912 244)">
    <circle cx="0" cy="0" r="54" fill="#f26b3a" />
    <text x="0" y="18" fill="#ffffff" font-family="Arial, sans-serif" font-size="50" font-weight="800" text-anchor="middle">ㅈ</text>
  </g>
  <g transform="translate(96 92)">
    <text fill="#13201b" font-family="Arial, sans-serif" font-size="76" font-weight="900">따르릉 여주 한글길</text>
    <text y="88" fill="#167c80" font-family="Arial, sans-serif" font-size="38" font-weight="700">여주 자전거 시티투어</text>
    <text y="150" fill="#5e6f68" font-family="Arial, sans-serif" font-size="30" font-weight="500">남한강을 따라 달리는 한글 자음 스토리텔링 투어</text>
  </g>
  <g transform="translate(96 502)">
    <rect width="238" height="62" rx="8" fill="#f26b3a" />
    <text x="119" y="40" fill="#ffffff" font-family="Arial, sans-serif" font-size="24" font-weight="800" text-anchor="middle">yeojubiketour.kr</text>
  </g>
</svg>
